<?xml version="1.0" encoding="UTF-8"?>
<!DOCTYPE svg PUBLIC "-//W3C//DTD SVG 1.1//EN" "http://www.w3.org/Graphics/SVG/1.1/DTD/svg11.dtd">
<svg xmlns="http://www.w3.org/2000/svg" version="1.1" width="506px" height="493px" style="shape-rendering:geometricPrecision; text-rendering:geometricPrecision; image-rendering:optimizeQuality; fill-rule:evenodd; clip-rule:evenodd" xmlns:xlink="http://www.w3.org/1999/xlink">
<g><path style="opacity:0.004" fill="#fefffe" d="M 111.5,1.5 C 112.833,2.16667 112.833,2.16667 111.5,1.5 Z"/></g>
<g><path style="opacity:0.008" fill="#fefffe" d="M 66.5,4.5 C 67.8333,5.16667 67.8333,5.16667 66.5,4.5 Z"/></g>
<g><path style="opacity:0.008" fill="#fefffe" d="M 43.5,18.5 C 44.8333,19.1667 44.8333,19.1667 43.5,18.5 Z"/></g>
<g><path style="opacity:0.008" fill="#fefffe" d="M 452.5,18.5 C 453.833,19.1667 453.833,19.1667 452.5,18.5 Z"/></g>
<g><path style="opacity:0.004" fill="#fefffe" d="M 260.5,20.5 C 261.833,21.1667 261.833,21.1667 260.5,20.5 Z"/></g>
<g><path style="opacity:0.004" fill="#fefffe" d="M 377.5,29.5 C 378.833,30.1667 378.833,30.1667 377.5,29.5 Z"/></g>
<g><path style="opacity:0.004" fill="#fefffe" d="M 62.5,32.5 C 63.8333,33.1667 63.8333,33.1667 62.5,32.5 Z"/></g>
<g><path style="opacity:0.004" fill="#fefffe" d="M 363.5,32.5 C 364.833,33.1667 364.833,33.1667 363.5,32.5 Z"/></g>
<g><path style="opacity:0.008" fill="#fefffe" d="M 100.5,34.5 C 101.833,35.1667 101.833,35.1667 100.5,34.5 Z"/></g>
<g><path style="opacity:0.004" fill="#fefffe" d="M 265.5,36.5 C 266.833,37.1667 266.833,37.1667 265.5,36.5 Z"/></g>
<g><path style="opacity:0.004" fill="#fefffe" d="M 478.5,37.5 C 479.833,38.1667 479.833,38.1667 478.5,37.5 Z"/></g>
<g><path style="opacity:0.004" fill="#fefffe" d="M 119.5,65.5 C 120.833,66.1667 120.833,66.1667 119.5,65.5 Z"/></g>
<g><path style="opacity:0.004" fill="#fefffe" d="M 66.5,71.5 C 67.8333,72.1667 67.8333,72.1667 66.5,71.5 Z"/></g>
<g><path style="opacity:0.004" fill="#fefffe" d="M 43.5,74.5 C 44.8333,75.1667 44.8333,75.1667 43.5,74.5 Z"/></g>
<g><path style="opacity:0.004" fill="#fefffe" d="M 292.5,91.5 C 293.833,92.1667 293.833,92.1667 292.5,91.5 Z"/></g>
<g><path style="opacity:0.008" fill="#fefffe" d="M 337.5,97.5 C 338.833,98.1667 338.833,98.1667 337.5,97.5 Z"/></g>
<g><path style="opacity:0.008" fill="#fefffe" d="M 482.5,102.5 C 483.833,103.167 483.833,103.167 482.5,102.5 Z"/></g>
<g><path style="opacity:0.008" fill="#fefffe" d="M 11.5,107.5 C 12.8333,108.167 12.8333,108.167 11.5,107.5 Z"/></g>
<g><path style="opacity:0.008" fill="#fefffe" d="M 254.5,123.5 C 255.833,124.167 255.833,124.167 254.5,123.5 Z"/></g>
<g><path style="opacity:0.008" fill="#fefffe" d="M 95.5,133.5 C 96.8333,134.167 96.8333,134.167 95.5,133.5 Z"/></g>
<g><path style="opacity:0.008" fill="#fefffe" d="M 260.5,134.5 C 261.833,135.167 261.833,135.167 260.5,134.5 Z"/></g>
<g><path style="opacity:0.008" fill="#fefffe" d="M 117.5,142.5 C 118.833,143.167 118.833,143.167 117.5,142.5 Z"/></g>
<g><path style="opacity:0.004" fill="#fefffe" d="M 30.5,161.5 C 31.8333,162.167 31.8333,162.167 30.5,161.5 Z"/></g>
<g><path style="opacity:0.004" fill="#fefffe" d="M 431.5,175.5 C 432.833,176.167 432.833,176.167 431.5,175.5 Z"/></g>
<g><path style="opacity:0.004" fill="#fefffe" d="M 67.5,184.5 C 68.8333,185.167 68.8333,185.167 67.5,184.5 Z"/></g>
<g><path style="opacity:0.008" fill="#fefffe" d="M 404.5,190.5 C 405.833,191.167 405.833,191.167 404.5,190.5 Z"/></g>
<g><path style="opacity:0.004" fill="#fefffe" d="M 262.5,195.5 C 263.833,196.167 263.833,196.167 262.5,195.5 Z"/></g>
<g><path style="opacity:0.008" fill="#fefffe" d="M 362.5,195.5 C 363.833,196.167 363.833,196.167 362.5,195.5 Z"/></g>
<g><path style="opacity:0.008" fill="#fefffe" d="M 402.5,201.5 C 403.833,202.167 403.833,202.167 402.5,201.5 Z"/></g>
<g><path style="opacity:0.147" fill="#90908f" d="M 259.5,217.5 C 255.982,214.14 252.982,210.307 250.5,206C 247.167,205.833 243.833,205.667 240.5,205.5C 236.761,205.514 233.428,206.18 230.5,207.5C 230.5,208.167 230.5,208.833 230.5,209.5C 228.833,209.5 227.167,209.5 225.5,209.5C 226.234,208.292 226.567,206.959 226.5,205.5C 220.158,205.334 213.825,205.5 207.5,206C 205.6,208.335 203.6,210.502 201.5,212.5C 202.526,209.628 204.192,207.128 206.5,205C 221.5,205.667 236.5,205.667 251.5,205C 254.562,208.969 257.229,213.136 259.5,217.5 Z"/></g>
<g><path style="opacity:0.18" fill="#8f8e8d" d="M 302.5,205.5 C 319.995,204.338 337.662,204.171 355.5,205C 356.446,207.298 355.779,209.132 353.5,210.5C 354.494,208.666 354.494,206.999 353.5,205.5C 336.5,205.5 319.5,205.5 302.5,205.5 Z"/></g>
<g><path style="opacity:0.999" fill="#fbfbfa" d="M 225.5,209.5 C 224.094,209.973 223.427,210.973 223.5,212.5C 222.094,212.973 221.427,213.973 221.5,215.5C 221.5,216.167 221.167,216.5 220.5,216.5C 219.094,216.973 218.427,217.973 218.5,219.5C 216.738,220.262 215.738,221.596 215.5,223.5C 214.094,223.973 213.427,224.973 213.5,226.5C 211.738,227.262 210.738,228.596 210.5,230.5C 207.395,233.275 205.062,236.608 203.5,240.5C 202.094,240.973 201.427,241.973 201.5,243.5C 201.672,244.492 201.338,245.158 200.5,245.5C 200.565,245.062 200.399,244.728 200,244.5C 198.916,245.665 198.083,246.998 197.5,248.5C 201.456,255.435 206.122,261.768 211.5,267.5C 212.471,269.483 213.471,271.483 214.5,273.5C 208.021,274.491 201.354,274.824 194.5,274.5C 194.573,272.973 193.906,271.973 192.5,271.5C 191.753,268.638 190.086,266.638 187.5,265.5C 187.5,265.167 187.5,264.833 187.5,264.5C 185.975,263.611 184.975,264.278 184.5,266.5C 184.672,267.492 184.338,268.158 183.5,268.5C 181.738,269.262 180.738,270.596 180.5,272.5C 179.094,272.973 178.427,273.973 178.5,275.5C 177.094,275.973 176.427,276.973 176.5,278.5C 176.5,279.167 176.167,279.5 175.5,279.5C 174.094,279.973 173.427,280.973 173.5,282.5C 171.738,283.262 170.738,284.596 170.5,286.5C 169.067,287.833 167.733,289.333 166.5,291C 160.843,291.499 155.176,291.666 149.5,291.5C 148.833,291.5 148.167,291.5 147.5,291.5C 147.604,289.297 148.27,287.297 149.5,285.5C 151.262,284.738 152.262,283.404 152.5,281.5C 154.369,279.966 155.702,277.966 156.5,275.5C 157.906,275.027 158.573,274.027 158.5,272.5C 160.262,271.738 161.262,270.404 161.5,268.5C 164.605,265.725 166.938,262.392 168.5,258.5C 170.262,257.738 171.262,256.404 171.5,254.5C 173.624,252.941 175.291,250.941 176.5,248.5C 171.966,241.407 166.966,234.741 161.5,228.5C 159.957,226.072 158.957,223.406 158.5,220.5C 164.926,221.729 171.259,221.729 177.5,220.5C 178.919,221.005 179.585,222.005 179.5,223.5C 180.124,225.754 181.457,227.421 183.5,228.5C 183.427,230.027 184.094,231.027 185.5,231.5C 186.117,231.611 186.617,231.944 187,232.5C 187.66,230.676 188.827,229.343 190.5,228.5C 191.906,228.027 192.573,227.027 192.5,225.5C 192.328,224.508 192.662,223.842 193.5,223.5C 196.323,222.008 197.99,219.674 198.5,216.5C 200.262,215.738 201.262,214.404 201.5,212.5C 203.6,210.502 205.6,208.335 207.5,206C 213.825,205.5 220.158,205.334 226.5,205.5C 226.567,206.959 226.234,208.292 225.5,209.5 Z"/></g>
<g><path style="opacity:0.999" fill="#fafbfa" d="M 259.5,217.5 C 260.34,219.853 261.674,221.853 263.5,223.5C 263.738,225.404 264.738,226.738 266.5,227.5C 266.427,229.027 267.094,230.027 268.5,230.5C 269.833,234.5 271.167,234.5 272.5,230.5C 273.906,230.027 274.573,229.027 274.5,227.5C 276.262,226.738 277.262,225.404 277.5,223.5C 277.414,222.504 277.748,221.671 278.5,221C 285.18,220.526 291.846,220.693 298.5,221.5C 299.116,222.202 299.116,223.202 298.5,224.5C 297.094,224.973 296.427,225.973 296.5,227.5C 295.094,227.973 294.427,228.973 294.5,230.5C 294.5,231.167 294.167,231.5 293.5,231.5C 292.094,231.973 291.427,232.973 291.5,234.5C 289.738,235.262 288.738,236.596 288.5,238.5C 287.094,238.973 286.427,239.973 286.5,241.5C 284.738,242.262 283.738,243.596 283.5,245.5C 282.094,245.973 281.427,246.973 281.5,248.5C 280.542,248.953 279.708,249.619 279,250.5C 278.5,264.163 278.333,277.829 278.5,291.5C 273.934,292.797 269.267,292.797 264.5,291.5C 262.681,278.203 261.848,264.537 262,250.5C 261.292,249.619 260.458,248.953 259.5,248.5C 250.568,234.298 240.901,220.632 230.5,207.5C 233.428,206.18 236.761,205.514 240.5,205.5C 243.833,205.667 247.167,205.833 250.5,206C 252.982,210.307 255.982,214.14 259.5,217.5 Z"/></g>
<g><path style="opacity:0.999" fill="#fcfdfd" d="M 302.5,205.5 C 319.5,205.5 336.5,205.5 353.5,205.5C 352.131,207.068 351.131,208.901 350.5,211C 350.833,211.333 351.167,211.667 351.5,212C 349.951,213.214 348.785,214.714 348,216.5C 347.667,216.167 347.333,215.833 347,215.5C 346.705,219.756 345.538,223.756 343.5,227.5C 343.709,228.086 344.043,228.586 344.5,229C 341.856,234.996 338.856,240.663 335.5,246C 335.833,246.333 336.167,246.667 336.5,247C 334.964,249.714 333.63,252.547 332.5,255.5C 332.863,256.183 333.196,256.85 333.5,257.5C 328.265,259.45 322.598,260.117 316.5,259.5C 318.454,253.923 320.121,248.256 321.5,242.5C 322.931,241.22 323.598,239.553 323.5,237.5C 324.931,236.22 325.598,234.553 325.5,232.5C 326.931,231.22 327.598,229.553 327.5,227.5C 327.328,226.508 327.662,225.842 328.5,225.5C 329.249,224.469 329.915,223.302 330.5,222C 321.173,221.5 311.839,221.334 302.5,221.5C 302.5,216.167 302.5,210.833 302.5,205.5 Z"/></g>
<g><path style="opacity:0.173" fill="#9e8882" d="M 225.5,209.5 C 225.573,211.027 224.906,212.027 223.5,212.5C 223.427,210.973 224.094,209.973 225.5,209.5 Z"/></g>
<g><path style="opacity:0.02" fill="#959176" d="M 223.5,212.5 C 223.573,214.027 222.906,215.027 221.5,215.5C 221.427,213.973 222.094,212.973 223.5,212.5 Z"/></g>
<g><path style="opacity:0.592" fill="#99a0af" d="M 201.5,212.5 C 201.262,214.404 200.262,215.738 198.5,216.5C 198.738,214.596 199.738,213.262 201.5,212.5 Z"/></g>
<g><path style="opacity:0.612" fill="#949ea4" d="M 230.5,207.5 C 240.901,220.632 250.568,234.298 259.5,248.5C 249.59,235.678 239.923,222.678 230.5,209.5C 230.5,208.833 230.5,208.167 230.5,207.5 Z"/></g>
<g><path style="opacity:0.997" fill="#fbf7ee" d="M 353.5,205.5 C 354.494,206.999 354.494,208.666 353.5,210.5C 346.825,226.201 340.158,241.867 333.5,257.5C 333.196,256.85 332.863,256.183 332.5,255.5C 333.63,252.547 334.964,249.714 336.5,247C 336.167,246.667 335.833,246.333 335.5,246C 338.856,240.663 341.856,234.996 344.5,229C 344.043,228.586 343.709,228.086 343.5,227.5C 345.538,223.756 346.705,219.756 347,215.5C 347.333,215.833 347.667,216.167 348,216.5C 348.785,214.714 349.951,213.214 351.5,212C 351.167,211.667 350.833,211.333 350.5,211C 351.131,208.901 352.131,207.068 353.5,205.5 Z"/></g>
<g><path style="opacity:0.008" fill="#fefffe" d="M 408.5,216.5 C 409.833,217.167 409.833,217.167 408.5,216.5 Z"/></g>
<g><path style="opacity:0.043" fill="#938e8c" d="M 220.5,216.5 C 220.573,218.027 219.906,219.027 218.5,219.5C 218.427,217.973 219.094,216.973 220.5,216.5 Z"/></g>
<g><path style="opacity:0.008" fill="#fefffe" d="M 162.5,218.5 C 163.833,219.167 163.833,219.167 162.5,218.5 Z"/></g>
<g><path style="opacity:0.322" fill="#9a948c" d="M 259.5,217.5 C 261.822,218.802 263.155,220.802 263.5,223.5C 261.674,221.853 260.34,219.853 259.5,217.5 Z"/></g>
<g><path style="opacity:0.62" fill="#a2a8b6" d="M 198.5,216.5 C 197.99,219.674 196.323,222.008 193.5,223.5C 194.786,220.883 196.453,218.55 198.5,216.5 Z"/></g>
<g><path style="opacity:0.084" fill="#84858a" d="M 302.5,205.5 C 302.5,210.833 302.5,216.167 302.5,221.5C 311.839,221.334 321.173,221.5 330.5,222C 329.915,223.302 329.249,224.469 328.5,225.5C 328.5,224.5 328.5,223.5 328.5,222.5C 319.161,222.334 309.827,222.5 300.5,223C 299.956,223.717 299.289,224.217 298.5,224.5C 299.116,223.202 299.116,222.202 298.5,221.5C 299.469,220.691 300.302,219.691 301,218.5C 301.175,213.981 301.675,209.647 302.5,205.5 Z"/></g>
<g><path style="opacity:0.169" fill="#9b948c" d="M 218.5,219.5 C 218.262,221.404 217.262,222.738 215.5,223.5C 215.738,221.596 216.738,220.262 218.5,219.5 Z"/></g>
<g><path style="opacity:0.004" fill="#fefffe" d="M 443.5,222.5 C 444.833,223.167 444.833,223.167 443.5,222.5 Z"/></g>
<g><path style="opacity:0.012" fill="#aca8a3" d="M 179.5,223.5 C 181.531,224.539 182.864,226.205 183.5,228.5C 181.457,227.421 180.124,225.754 179.5,223.5 Z"/></g>
<g><path style="opacity:0.027" fill="#a29e9a" d="M 215.5,223.5 C 215.573,225.027 214.906,226.027 213.5,226.5C 213.427,224.973 214.094,223.973 215.5,223.5 Z"/></g>
<g><path style="opacity:0.02" fill="#96999f" d="M 158.5,220.5 C 158.957,223.406 159.957,226.072 161.5,228.5C 159.249,226.854 157.582,224.687 156.5,222C 157.044,221.283 157.711,220.783 158.5,220.5 Z"/></g>
<g><path style="opacity:0.529" fill="#a29d8e" d="M 263.5,223.5 C 265.262,224.262 266.262,225.596 266.5,227.5C 264.738,226.738 263.738,225.404 263.5,223.5 Z"/></g>
<g><path style="opacity:0.588" fill="#a3a7ac" d="M 277.5,223.5 C 277.262,225.404 276.262,226.738 274.5,227.5C 274.738,225.596 275.738,224.262 277.5,223.5 Z"/></g>
<g><path style="opacity:0.043" fill="#979189" d="M 298.5,224.5 C 298.573,226.027 297.906,227.027 296.5,227.5C 296.427,225.973 297.094,224.973 298.5,224.5 Z"/></g>
<g><path style="opacity:0.565" fill="#aab1bb" d="M 192.5,225.5 C 192.573,227.027 191.906,228.027 190.5,228.5C 190.427,226.973 191.094,225.973 192.5,225.5 Z"/></g>
<g><path style="opacity:0.016" fill="#a29f9b" d="M 296.5,227.5 C 296.573,229.027 295.906,230.027 294.5,230.5C 294.427,228.973 295.094,227.973 296.5,227.5 Z"/></g>
<g><path style="opacity:0.031" fill="#9aa0a7" d="M 161.5,228.5 C 166.966,234.741 171.966,241.407 176.5,248.5C 175.291,250.941 173.624,252.941 171.5,254.5C 172.441,252.534 173.441,250.534 174.5,248.5C 170.114,241.798 165.781,235.131 161.5,228.5 Z"/></g>
<g><path style="opacity:0.231" fill="#98948e" d="M 213.5,226.5 C 213.262,228.404 212.262,229.738 210.5,230.5C 210.738,228.596 211.738,227.262 213.5,226.5 Z"/></g>
<g><path style="opacity:0.384" fill="#a19e99" d="M 266.5,227.5 C 267.906,227.973 268.573,228.973 268.5,230.5C 267.094,230.027 266.427,229.027 266.5,227.5 Z"/></g>
<g><path style="opacity:0.392" fill="#95aab2" d="M 274.5,227.5 C 274.573,229.027 273.906,230.027 272.5,230.5C 272.427,228.973 273.094,227.973 274.5,227.5 Z"/></g>
<g><path style="opacity:0.859" fill="#9094a5" d="M 327.5,227.5 C 327.598,229.553 326.931,231.22 325.5,232.5C 325.402,230.447 326.069,228.78 327.5,227.5 Z"/></g>
<g><path style="opacity:0.478" fill="#a39f99" d="M 183.5,228.5 C 184.906,228.973 185.573,229.973 185.5,231.5C 184.094,231.027 183.427,230.027 183.5,228.5 Z"/></g>
<g><path style="opacity:0.067" fill="#989d9e" d="M 268.5,230.5 C 269.833,231.833 271.167,231.833 272.5,230.5C 271.167,234.5 269.833,234.5 268.5,230.5 Z"/></g>
<g><path style="opacity:0.055" fill="#98937f" d="M 293.5,231.5 C 293.573,233.027 292.906,234.027 291.5,234.5C 291.427,232.973 292.094,231.973 293.5,231.5 Z"/></g>
<g><path style="opacity:0.078" fill="#9b968e" d="M 353.5,210.5 C 353.611,211.117 353.944,211.617 354.5,212C 347.809,227.736 341.309,243.569 335,259.5C 328.256,260.479 321.422,260.812 314.5,260.5C 316.062,254.139 318.395,248.139 321.5,242.5C 320.121,248.256 318.454,253.923 316.5,259.5C 322.598,260.117 328.265,259.45 333.5,257.5C 340.158,241.867 346.825,226.201 353.5,210.5 Z"/></g>
<g><path style="opacity:0.043" fill="#968e87" d="M 210.5,230.5 C 208.938,234.392 206.605,237.725 203.5,240.5C 205.062,236.608 207.395,233.275 210.5,230.5 Z"/></g>
<g><path style="opacity:0.808" fill="#939cac" d="M 325.5,232.5 C 325.598,234.553 324.931,236.22 323.5,237.5C 323.402,235.447 324.069,233.78 325.5,232.5 Z"/></g>
<g><path style="opacity:0.184" fill="#978f84" d="M 291.5,234.5 C 291.262,236.404 290.262,237.738 288.5,238.5C 288.738,236.596 289.738,235.262 291.5,234.5 Z"/></g>
<g><path style="opacity:0.043" fill="#998d87" d="M 288.5,238.5 C 288.573,240.027 287.906,241.027 286.5,241.5C 286.427,239.973 287.094,238.973 288.5,238.5 Z"/></g>
<g><path style="opacity:0.745" fill="#969aa5" d="M 323.5,237.5 C 323.598,239.553 322.931,241.22 321.5,242.5C 321.402,240.447 322.069,238.78 323.5,237.5 Z"/></g>
<g><path style="opacity:0.043" fill="#8c8882" d="M 203.5,240.5 C 203.573,242.027 202.906,243.027 201.5,243.5C 201.427,241.973 202.094,240.973 203.5,240.5 Z"/></g>
<g><path style="opacity:0.082" fill="#9f9381" d="M 286.5,241.5 C 286.262,243.404 285.262,244.738 283.5,245.5C 283.738,243.596 284.738,242.262 286.5,241.5 Z"/></g>
<g><path style="opacity:0.008" fill="#fefffe" d="M 18.5,245.5 C 19.8333,246.167 19.8333,246.167 18.5,245.5 Z"/></g>
<g><path style="opacity:0.043" fill="#998d88" d="M 283.5,245.5 C 283.573,247.027 282.906,248.027 281.5,248.5C 281.427,246.973 282.094,245.973 283.5,245.5 Z"/></g>
<g><path style="opacity:0.008" fill="#fefffe" d="M 372.5,251.5 C 373.833,252.167 373.833,252.167 372.5,251.5 Z"/></g>
<g><path style="opacity:0.635" fill="#98a1aa" d="M 171.5,254.5 C 171.262,256.404 170.262,257.738 168.5,258.5C 168.738,256.596 169.738,255.262 171.5,254.5 Z"/></g>
<g><path style="opacity:0.004" fill="#fefffe" d="M 354.5,256.5 C 355.833,257.167 355.833,257.167 354.5,256.5 Z"/></g>
<g><path style="opacity:0.004" fill="#fefffe" d="M 83.5,260.5 C 84.8333,261.167 84.8333,261.167 83.5,260.5 Z"/></g>
<g><path style="opacity:0.514" fill="#92a2ac" d="M 168.5,258.5 C 166.938,262.392 164.605,265.725 161.5,268.5C 163.062,264.608 165.395,261.275 168.5,258.5 Z"/></g>
<g><path style="opacity:0.864" fill="#b3c0c7" d="M 259.5,248.5 C 260.458,248.953 261.292,249.619 262,250.5C 261.848,264.537 262.681,278.203 264.5,291.5C 263.09,292.828 261.924,292.495 261,290.5C 260.799,276.456 260.299,262.456 259.5,248.5 Z"/></g>
<g><path style="opacity:0.612" fill="#9e9990" d="M 200.5,245.5 C 199.527,247.068 199.36,248.735 200,250.5C 204.472,255.792 208.305,261.459 211.5,267.5C 206.122,261.768 201.456,255.435 197.5,248.5C 198.083,246.998 198.916,245.665 200,244.5C 200.399,244.728 200.565,245.062 200.5,245.5 Z"/></g>
<g><path style="opacity:0.008" fill="#fefffe" d="M 218.5,264.5 C 219.833,265.167 219.833,265.167 218.5,264.5 Z"/></g>
<g><path style="opacity:0.012" fill="#9d9c99" d="M 187.5,264.5 C 186.778,265.551 185.778,266.218 184.5,266.5C 184.975,264.278 185.975,263.611 187.5,264.5 Z"/></g>
<g><path style="opacity:0.518" fill="#9ea1ac" d="M 187.5,265.5 C 190.086,266.638 191.753,268.638 192.5,271.5C 190.367,269.909 188.701,267.909 187.5,265.5 Z"/></g>
<g><path style="opacity:0.416" fill="#9b9591" d="M 211.5,267.5 C 213.841,269.656 215.841,272.156 217.5,275C 216.906,275.464 216.239,275.631 215.5,275.5C 215.672,274.508 215.338,273.842 214.5,273.5C 213.471,271.483 212.471,269.483 211.5,267.5 Z"/></g>
<g><path style="opacity:0.514" fill="#92a2ac" d="M 161.5,268.5 C 161.262,270.404 160.262,271.738 158.5,272.5C 158.738,270.596 159.738,269.262 161.5,268.5 Z"/></g>
<g><path style="opacity:0.024" fill="#a5a29f" d="M 183.5,268.5 C 183.262,270.404 182.262,271.738 180.5,272.5C 180.738,270.596 181.738,269.262 183.5,268.5 Z"/></g>
<g><path style="opacity:0.059" fill="#8b8f9a" d="M 192.5,271.5 C 193.906,271.973 194.573,272.973 194.5,274.5C 193.094,274.027 192.427,273.027 192.5,271.5 Z"/></g>
<g><path style="opacity:0.004" fill="#fefffe" d="M 378.5,273.5 C 379.833,274.167 379.833,274.167 378.5,273.5 Z"/></g>
<g><path style="opacity:0.008" fill="#fefffe" d="M 464.5,273.5 C 465.833,274.167 465.833,274.167 464.5,273.5 Z"/></g>
<g><path style="opacity:0.384" fill="#8c959a" d="M 158.5,272.5 C 158.573,274.027 157.906,275.027 156.5,275.5C 156.427,273.973 157.094,272.973 158.5,272.5 Z"/></g>
<g><path style="opacity:0.106" fill="#9d817e" d="M 180.5,272.5 C 180.573,274.027 179.906,275.027 178.5,275.5C 178.427,273.973 179.094,272.973 180.5,272.5 Z"/></g>
<g><path style="opacity:0.707" fill="#d2d2d2" d="M 214.5,273.5 C 215.338,273.842 215.672,274.508 215.5,275.5C 209.242,275.19 203.076,275.524 197,276.5C 196.005,275.934 195.172,275.267 194.5,274.5C 201.354,274.824 208.021,274.491 214.5,273.5 Z"/></g>
<g><path style="opacity:0.531" fill="#b0a49b" d="M 281.5,248.5 C 280.701,262.456 280.201,276.456 280,290.5C 279.617,291.056 279.117,291.389 278.5,291.5C 278.333,277.829 278.5,264.163 279,250.5C 279.708,249.619 280.542,248.953 281.5,248.5 Z"/></g>
<g><path style="opacity:0.027" fill="#a57b76" d="M 178.5,275.5 C 178.573,277.027 177.906,278.027 176.5,278.5C 176.427,276.973 177.094,275.973 178.5,275.5 Z"/></g>
<g><path style="opacity:0.995" fill="#fdfdfc" d="M 308.5,275.5 C 323.833,275.5 339.167,275.5 354.5,275.5C 354.5,279.5 354.5,283.5 354.5,287.5C 354.5,288.833 354.5,290.167 354.5,291.5C 338.833,291.5 323.167,291.5 307.5,291.5C 306.041,291.433 304.708,291.766 303.5,292.5C 303.5,290.833 303.5,289.167 303.5,287.5C 305.834,285.824 306.834,283.491 306.5,280.5C 307.931,279.22 308.598,277.553 308.5,275.5 Z"/></g>
<g><path style="opacity:0.004" fill="#fefffe" d="M 255.5,277.5 C 256.833,278.167 256.833,278.167 255.5,277.5 Z"/></g>
<g><path style="opacity:1" fill="#9a9ca7" d="M 308.5,275.5 C 308.598,277.553 307.931,279.22 306.5,280.5C 306.402,278.447 307.069,276.78 308.5,275.5 Z"/></g>
<g><path style="opacity:1" fill="#afbbc3" d="M 156.5,275.5 C 155.702,277.966 154.369,279.966 152.5,281.5C 152.845,278.802 154.178,276.802 156.5,275.5 Z"/></g>
<g><path style="opacity:0.008" fill="#fefffe" d="M 475.5,280.5 C 476.833,281.167 476.833,281.167 475.5,280.5 Z"/></g>
<g><path style="opacity:0.133" fill="#988e7f" d="M 175.5,279.5 C 175.573,281.027 174.906,282.027 173.5,282.5C 173.427,280.973 174.094,279.973 175.5,279.5 Z"/></g>
<g><path style="opacity:0.793" fill="#a7a191" d="M 308.5,275.5 C 323.995,274.339 339.661,274.172 355.5,275C 356.451,278.057 356.784,281.223 356.5,284.5C 355.833,285.5 355.167,286.5 354.5,287.5C 354.5,283.5 354.5,279.5 354.5,275.5C 339.167,275.5 323.833,275.5 308.5,275.5 Z"/></g>
<g><path style="opacity:0.851" fill="#a2aab3" d="M 152.5,281.5 C 152.262,283.404 151.262,284.738 149.5,285.5C 149.738,283.596 150.738,282.262 152.5,281.5 Z"/></g>
<g><path style="opacity:0.941" fill="#abb3c2" d="M 306.5,280.5 C 306.834,283.491 305.834,285.824 303.5,287.5C 303.935,284.843 304.935,282.509 306.5,280.5 Z"/></g>
<g><path style="opacity:0.008" fill="#fefffe" d="M 362.5,283.5 C 363.833,284.167 363.833,284.167 362.5,283.5 Z"/></g>
<g><path style="opacity:0.231" fill="#959289" d="M 173.5,282.5 C 173.262,284.404 172.262,285.738 170.5,286.5C 170.738,284.596 171.738,283.262 173.5,282.5 Z"/></g>
<g><path style="opacity:0.004" fill="#fefffe" d="M 418.5,288.5 C 419.833,289.167 419.833,289.167 418.5,288.5 Z"/></g>
<g><path style="opacity:0.902" fill="#9dabae" d="M 303.5,287.5 C 303.5,289.167 303.5,290.833 303.5,292.5C 300.833,290.833 300.833,289.167 303.5,287.5 Z"/></g>
<g><path style="opacity:0.812" fill="#9fa3ab" d="M 149.5,285.5 C 148.27,287.297 147.604,289.297 147.5,291.5C 146.703,292.478 146.036,292.145 145.5,290.5C 146.154,288.142 147.487,286.475 149.5,285.5 Z"/></g>
<g><path style="opacity:0.051" fill="#9e9e9a" d="M 170.5,286.5 C 170.16,288.679 169.16,290.512 167.5,292C 161.319,292.819 155.319,292.653 149.5,291.5C 155.319,292.653 161.319,292.819 167.5,292C 169.16,290.512 170.16,288.679 170.5,286.5 Z"/></g>
<g><path style="opacity:0.039" fill="#aaaaa8" d="M 356.5,284.5 C 356.768,287.119 356.435,289.619 355.5,292C 339.593,292.175 323.759,292.675 308,293.5C 307.536,292.906 307.369,292.239 307.5,291.5C 323.167,291.5 338.833,291.5 354.5,291.5C 354.5,290.167 354.5,288.833 354.5,287.5C 355.167,286.5 355.833,285.5 356.5,284.5 Z"/></g>
<g><path style="opacity:0.004" fill="#fefffe" d="M 462.5,297.5 C 463.833,298.167 463.833,298.167 462.5,297.5 Z"/></g>
<g><path style="opacity:0.004" fill="#fefffe" d="M 332.5,306.5 C 333.833,307.167 333.833,307.167 332.5,306.5 Z"/></g>
<g><path style="opacity:0.008" fill="#fefffe" d="M 428.5,309.5 C 429.833,310.167 429.833,310.167 428.5,309.5 Z"/></g>
<g><path style="opacity:0.445" fill="#acacab" d="M 297.5,324.5 C 297.5,324.167 297.5,323.833 297.5,323.5C 306.173,323.334 314.84,323.5 323.5,324C 322.833,325.333 322.167,326.667 321.5,328C 318.183,328.498 314.85,328.665 311.5,328.5C 311.5,328.167 311.5,327.833 311.5,327.5C 314.5,327.5 317.5,327.5 320.5,327.5C 320.5,326.5 320.5,325.5 320.5,324.5C 312.833,324.5 305.167,324.5 297.5,324.5 Z"/></g>
<g><path style="opacity:0.997" fill="#fafaf9" d="M 184.5,324.5 C 192.167,324.5 199.833,324.5 207.5,324.5C 207.5,325.5 207.5,326.5 207.5,327.5C 201.167,327.5 194.833,327.5 188.5,327.5C 188.263,328.791 188.596,329.791 189.5,330.5C 191.857,330.663 194.19,330.497 196.5,330C 197.056,329.617 197.389,329.117 197.5,328.5C 197.833,328.5 198.167,328.5 198.5,328.5C 199.635,330.213 201.302,330.88 203.5,330.5C 204.959,330.567 206.292,330.234 207.5,329.5C 207.5,329.833 207.5,330.167 207.5,330.5C 207.5,331.5 207.5,332.5 207.5,333.5C 201.167,333.5 194.833,333.5 188.5,333.5C 188.5,334.833 188.5,336.167 188.5,337.5C 190.833,337.5 193.167,337.5 195.5,337.5C 199.555,337.176 203.555,337.509 207.5,338.5C 199.862,339.497 192.196,339.831 184.5,339.5C 184.5,334.5 184.5,329.5 184.5,324.5 Z M 197.5,328.5 C 197.389,329.117 197.056,329.617 196.5,330C 194.19,330.497 191.857,330.663 189.5,330.5C 191.635,328.631 194.302,327.964 197.5,328.5 Z"/></g>
<g><path style="opacity:0.994" fill="#eeeeeb" d="M 211.5,325.5 C 212.601,324.402 213.934,324.235 215.5,325C 216.163,326.518 217.163,327.685 218.5,328.5C 219.338,328.842 219.672,329.508 219.5,330.5C 220.33,332.824 221.663,334.824 223.5,336.5C 224.705,335.423 225.372,334.09 225.5,332.5C 227.25,331.341 228.25,329.674 228.5,327.5C 229.607,326.008 231.107,325.008 233,324.5C 236.154,324.492 236.321,325.158 233.5,326.5C 232.571,327.689 232.238,329.022 232.5,330.5C 230.986,333.692 229.32,336.859 227.5,340C 224.833,340.667 222.167,340.667 219.5,340C 218.177,339.184 217.511,338.017 217.5,336.5C 216.478,333.275 215.144,330.109 213.5,327C 213.164,325.97 212.497,325.47 211.5,325.5 Z"/></g>
<g><path style="opacity:0.212" fill="#abaead" d="M 262.5,323.5 C 262.5,323.833 262.5,324.167 262.5,324.5C 254.833,324.5 247.167,324.5 239.5,324.5C 239.179,330.026 239.512,335.36 240.5,340.5C 240.44,341.043 240.107,341.376 239.5,341.5C 238.844,336.121 238.011,330.787 237,325.5C 236.004,327.66 234.504,329.327 232.5,330.5C 232.238,329.022 232.571,327.689 233.5,326.5C 236.321,325.158 236.154,324.492 233,324.5C 231.107,325.008 229.607,326.008 228.5,327.5C 228.539,326.417 228.873,325.417 229.5,324.5C 240.48,323.501 251.48,323.168 262.5,323.5 Z"/></g>
<g><path style="opacity:0.997" fill="#f2f2f1" d="M 262.5,324.5 C 263.404,325.209 263.737,326.209 263.5,327.5C 256.833,327.5 250.167,327.5 243.5,327.5C 243.5,328.5 243.5,329.5 243.5,330.5C 244.959,330.567 246.292,330.234 247.5,329.5C 251.298,330.483 255.298,330.817 259.5,330.5C 260.5,330.5 261.5,330.5 262.5,330.5C 263.167,330.5 263.5,330.833 263.5,331.5C 263.586,332.496 263.252,333.329 262.5,334C 237.167,335 237.167,336 262.5,337C 263.337,338.011 263.67,339.178 263.5,340.5C 256.082,340.587 248.415,340.587 240.5,340.5C 239.512,335.36 239.179,330.026 239.5,324.5C 247.167,324.5 254.833,324.5 262.5,324.5 Z"/></g>
<g><path style="opacity:0.998" fill="#fafcfb" d="M 297.5,324.5 C 305.167,324.5 312.833,324.5 320.5,324.5C 320.5,325.5 320.5,326.5 320.5,327.5C 317.5,327.5 314.5,327.5 311.5,327.5C 310.834,331.353 310.167,335.353 309.5,339.5C 308.817,339.863 308.15,340.196 307.5,340.5C 307.167,340.5 306.833,340.5 306.5,340.5C 306.5,336.167 306.5,331.833 306.5,327.5C 303.5,327.5 300.5,327.5 297.5,327.5C 297.5,326.5 297.5,325.5 297.5,324.5 Z"/></g>
<g><path style="opacity:0.996" fill="#c2cbd8" d="M 211.5,325.5 C 212.497,325.47 213.164,325.97 213.5,327C 215.144,330.109 216.478,333.275 217.5,336.5C 215.347,334.206 213.68,331.54 212.5,328.5C 212.443,327.391 212.11,326.391 211.5,325.5 Z"/></g>
<g><path style="opacity:0.29" fill="#999a9c" d="M 218.5,328.5 C 217.163,327.685 216.163,326.518 215.5,325C 213.934,324.235 212.601,324.402 211.5,325.5C 212.11,326.391 212.443,327.391 212.5,328.5C 210.414,326.977 208.748,327.31 207.5,329.5C 206.292,330.234 204.959,330.567 203.5,330.5C 202.448,328.744 200.781,328.077 198.5,328.5C 198.167,328.5 197.833,328.5 197.5,328.5C 194.302,327.964 191.635,328.631 189.5,330.5C 188.596,329.791 188.263,328.791 188.5,327.5C 194.833,327.5 201.167,327.5 207.5,327.5C 207.5,326.5 207.5,325.5 207.5,324.5C 199.833,324.5 192.167,324.5 184.5,324.5C 183.512,329.64 183.179,334.974 183.5,340.5C 182.511,335.025 182.178,329.358 182.5,323.5C 193.838,323.333 205.172,323.5 216.5,324C 217.582,325.33 218.249,326.83 218.5,328.5 Z M 197.5,328.5 C 197.389,329.117 197.056,329.617 196.5,330C 194.19,330.497 191.857,330.663 189.5,330.5C 191.635,328.631 194.302,327.964 197.5,328.5 Z M 198.5,328.5 C 200.781,328.077 202.448,328.744 203.5,330.5C 201.302,330.88 199.635,330.213 198.5,328.5 Z"/></g>
<g><path style="opacity:0.294" fill="#919191" d="M 262.5,324.5 C 262.5,324.167 262.5,323.833 262.5,323.5C 266.182,323.335 269.848,323.501 273.5,324C 274.381,324.708 275.047,325.542 275.5,326.5C 272.785,324.877 269.785,324.21 266.5,324.5C 266.5,329.833 266.5,335.167 266.5,340.5C 265.732,339.737 265.232,338.737 265,337.5C 264.768,338.737 264.268,339.737 263.5,340.5C 263.67,339.178 263.337,338.011 262.5,337C 237.167,336 237.167,335 262.5,334C 263.252,333.329 263.586,332.496 263.5,331.5C 264.268,332.263 264.768,333.263 265,334.5C 265.667,331.833 265.667,329.167 265,326.5C 263.915,327.736 263.082,329.069 262.5,330.5C 261.5,330.5 260.5,330.5 259.5,330.5C 259.389,329.883 259.056,329.383 258.5,329C 254.642,328.19 250.976,328.357 247.5,329.5C 246.292,330.234 244.959,330.567 243.5,330.5C 243.5,329.5 243.5,328.5 243.5,327.5C 250.167,327.5 256.833,327.5 263.5,327.5C 263.737,326.209 263.404,325.209 262.5,324.5 Z M 259.5,330.5 C 255.298,330.817 251.298,330.483 247.5,329.5C 250.976,328.357 254.642,328.19 258.5,329C 259.056,329.383 259.389,329.883 259.5,330.5 Z"/></g>
<g><path style="opacity:0.282" fill="#93979f" d="M 295.5,323.5 C 296.167,323.5 296.833,323.5 297.5,323.5C 297.5,323.833 297.5,324.167 297.5,324.5C 297.5,325.5 297.5,326.5 297.5,327.5C 300.5,327.5 303.5,327.5 306.5,327.5C 306.5,331.833 306.5,336.167 306.5,340.5C 305.517,336.702 305.183,332.702 305.5,328.5C 301.805,328.517 298.472,328.85 295.5,329.5C 295.5,327.5 295.5,325.5 295.5,323.5 Z"/></g>
<g><path style="opacity:0.58" fill="#929ba5" d="M 228.5,327.5 C 228.25,329.674 227.25,331.341 225.5,332.5C 225.75,330.326 226.75,328.659 228.5,327.5 Z"/></g>
<g><path style="opacity:0.008" fill="#fefffe" d="M 424.5,331.5 C 425.833,332.167 425.833,332.167 424.5,331.5 Z"/></g>
<g><path style="opacity:0.475" fill="#aaaaa4" d="M 295.5,323.5 C 295.5,325.5 295.5,327.5 295.5,329.5C 295.815,333.371 295.482,337.038 294.5,340.5C 294.5,335.167 294.5,329.833 294.5,324.5C 293.167,324.5 291.833,324.5 290.5,324.5C 290.824,328.555 290.491,332.555 289.5,336.5C 288.145,335.812 287.145,334.812 286.5,333.5C 288.237,330.992 289.07,327.992 289,324.5C 291.372,322.324 293.539,321.991 295.5,323.5 Z"/></g>
<g><path style="opacity:0.673" fill="#c4c3c2" d="M 207.5,330.5 C 208.833,331.833 208.833,333.167 207.5,334.5C 201.794,334.171 196.128,334.505 190.5,335.5C 192.045,336.452 193.712,336.785 195.5,336.5C 195.5,336.833 195.5,337.167 195.5,337.5C 193.167,337.5 190.833,337.5 188.5,337.5C 188.5,336.167 188.5,334.833 188.5,333.5C 194.833,333.5 201.167,333.5 207.5,333.5C 207.5,332.5 207.5,331.5 207.5,330.5 Z"/></g>
<g><path style="opacity:0.071" fill="#9d9896" d="M 219.5,330.5 C 221.173,331.343 222.34,332.676 223,334.5C 223.708,333.619 224.542,332.953 225.5,332.5C 225.372,334.09 224.705,335.423 223.5,336.5C 221.663,334.824 220.33,332.824 219.5,330.5 Z"/></g>
<g><path style="opacity:0.997" fill="#ecedec" d="M 275.5,326.5 C 279.336,328.584 283.003,330.917 286.5,333.5C 287.145,334.812 288.145,335.812 289.5,336.5C 290.491,332.555 290.824,328.555 290.5,324.5C 291.833,324.5 293.167,324.5 294.5,324.5C 294.5,329.833 294.5,335.167 294.5,340.5C 294.44,341.043 294.107,341.376 293.5,341.5C 286.619,340.29 280.619,337.29 275.5,332.5C 274.685,331.163 273.518,330.163 272,329.5C 271.501,333.152 271.335,336.818 271.5,340.5C 269.602,341.096 267.935,341.096 266.5,340.5C 266.5,335.167 266.5,329.833 266.5,324.5C 269.785,324.21 272.785,324.877 275.5,326.5 Z"/></g>
<g><path style="opacity:0.18" fill="#8f8585" d="M 275.5,332.5 C 274.504,332.586 273.671,332.252 273,331.5C 272.819,334.695 272.319,337.695 271.5,340.5C 271.335,336.818 271.501,333.152 272,329.5C 273.518,330.163 274.685,331.163 275.5,332.5 Z"/></g>
<g><path style="opacity:0.871" fill="#b9c7d3" d="M 184.5,324.5 C 184.5,329.5 184.5,334.5 184.5,339.5C 184.5,340.167 184.833,340.5 185.5,340.5C 184.833,341.833 184.167,341.833 183.5,340.5C 183.179,334.974 183.512,329.64 184.5,324.5 Z"/></g>
<g><path style="opacity:0.075" fill="#868686" d="M 207.5,334.5 C 207.5,334.833 207.5,335.167 207.5,335.5C 203.6,336.43 199.6,336.763 195.5,336.5C 193.712,336.785 192.045,336.452 190.5,335.5C 196.128,334.505 201.794,334.171 207.5,334.5 Z"/></g>
<g><path style="opacity:0.764" fill="#d8d2c4" d="M 311.5,327.5 C 311.5,327.833 311.5,328.167 311.5,328.5C 311.824,332.555 311.491,336.555 310.5,340.5C 309.313,341.653 308.313,341.653 307.5,340.5C 308.15,340.196 308.817,339.863 309.5,339.5C 310.167,335.353 310.834,331.353 311.5,327.5 Z"/></g>
<g><path style="opacity:0.004" fill="#fefffe" d="M 325.5,334.5 C 326.833,335.167 326.833,335.167 325.5,334.5 Z"/></g>
<g><path style="opacity:0.847" fill="#e2e2e2" d="M 207.5,335.5 C 208.966,337.635 208.8,339.635 207,341.5C 199.921,340.52 192.755,340.187 185.5,340.5C 184.833,340.5 184.5,340.167 184.5,339.5C 192.196,339.831 199.862,339.497 207.5,338.5C 203.555,337.509 199.555,337.176 195.5,337.5C 195.5,337.167 195.5,336.833 195.5,336.5C 199.6,336.763 203.6,336.43 207.5,335.5 Z"/></g>
<g><path style="opacity:0.008" fill="#fefffe" d="M 392.5,348.5 C 393.833,349.167 393.833,349.167 392.5,348.5 Z"/></g>
<g><path style="opacity:0.008" fill="#fefffe" d="M 55.5,358.5 C 56.8333,359.167 56.8333,359.167 55.5,358.5 Z"/></g>
<g><path style="opacity:0.008" fill="#fefffe" d="M 180.5,369.5 C 181.833,370.167 181.833,370.167 180.5,369.5 Z"/></g>
<g><path style="opacity:0.008" fill="#fefffe" d="M 287.5,373.5 C 288.833,374.167 288.833,374.167 287.5,373.5 Z"/></g>
<g><path style="opacity:0.004" fill="#fefffe" d="M 263.5,398.5 C 264.833,399.167 264.833,399.167 263.5,398.5 Z"/></g>
<g><path style="opacity:0.004" fill="#fefffe" d="M 319.5,415.5 C 320.833,416.167 320.833,416.167 319.5,415.5 Z"/></g>
<g><path style="opacity:0.004" fill="#fefffe" d="M 150.5,417.5 C 151.833,418.167 151.833,418.167 150.5,417.5 Z"/></g>
<g><path style="opacity:0.008" fill="#fefffe" d="M 104.5,425.5 C 105.833,426.167 105.833,426.167 104.5,425.5 Z"/></g>
<g><path style="opacity:0.008" fill="#fefffe" d="M 361.5,431.5 C 362.833,432.167 362.833,432.167 361.5,431.5 Z"/></g>
<g><path style="opacity:0.004" fill="#fefffe" d="M 9.5,444.5 C 10.8333,445.167 10.8333,445.167 9.5,444.5 Z"/></g>
<g><path style="opacity:0.008" fill="#fefffe" d="M 87.5,460.5 C 88.8333,461.167 88.8333,461.167 87.5,460.5 Z"/></g>
<g><path style="opacity:0.004" fill="#fefffe" d="M 71.5,467.5 C 72.8333,468.167 72.8333,468.167 71.5,467.5 Z"/></g>
<g><path style="opacity:0.008" fill="#fefffe" d="M 486.5,470.5 C 487.833,471.167 487.833,471.167 486.5,470.5 Z"/></g>
<g><path style="opacity:0.008" fill="#fefffe" d="M 216.5,474.5 C 217.833,475.167 217.833,475.167 216.5,474.5 Z"/></g>
<g><path style="opacity:0.008" fill="#fefffe" d="M 176.5,475.5 C 177.833,476.167 177.833,476.167 176.5,475.5 Z"/></g>
<g><path style="opacity:0.004" fill="#fefffe" d="M 126.5,476.5 C 127.833,477.167 127.833,477.167 126.5,476.5 Z"/></g>
<g><path style="opacity:0.008" fill="#fefffe" d="M 381.5,479.5 C 382.833,480.167 382.833,480.167 381.5,479.5 Z"/></g>
<g><path style="opacity:0.008" fill="#fefffe" d="M 329.5,487.5 C 330.833,488.167 330.833,488.167 329.5,487.5 Z"/></g>
</svg>
